<?xml version="1.0" encoding="utf-8" ?>
<svg baseProfile="full" height="600px" style="background-color: #FFF;" version="1.1" viewBox="-40.677 -150.577 330.354 425.154" width="467px" xmlns="http://www.w3.org/2000/svg" xmlns:ev="http://www.w3.org/2001/xml-events" xmlns:xlink="http://www.w3.org/1999/xlink"><defs /><path d="M 50.0,20.0 L 0.0,20.0 L 0.0,22.0 L 1.0,22.0 L 1.0,-5.0 L -2.0,-5.0 L -2.0,-2.0 L 1.0,-2.0 L 1.0,-5.0 L -2.0,-5.0 L -2.0,-2.0 L 14.0,-2.0 L 14.0,-47.0 L 13.0,-47.0 L 13.0,-43.0 L 20.0,-43.0 L 20.0,-45.0 L 14.0,-45.0 L 14.0,-35.0 L 15.0,-35.0 L 15.0,-40.0 L 8.0,-40.0 L 8.0,-30.0 L 9.0,-30.0 L 9.0,-36.0 L 8.0,-36.0 L 8.0,-34.0 L 16.0,-34.0 L 16.0,-39.0 L 10.0,-39.0 L 10.0,-27.0 L 16.0,-27.0 L 16.0,-34.0 L 10.0,-34.0 L 10.0,-26.0 L 12.0,-26.0 L 12.0,-32.0 L 6.0,-32.0 L 6.0,-27.0 L 11.0,-27.0 L 11.0,-87.0 L -5.0,-87.0 L -5.0,-72.0 L 15.0,-72.0 L 15.0,-79.0 L -1.0,-79.0 L -1.0,-74.0 L 18.0,-74.0 L 18.0,-75.0 L -5.0,-75.0 L -5.0,-63.0 L 15.0,-63.0 L 15.0,-106.0 L -1.0,-106.0 L -1.0,-82.0 L 17.0,-82.0 L 17.0,-110.0 L -1.0,-110.0 L -1.0,-82.0 L 3.0,-82.0 L 3.0,-87.0 L -13.0,-87.0 L -13.0,-85.0 L 181.0,-85.0 L 181.0,-88.0 L 178.0,-88.0 L 178.0,-76.0 L 189.0,-76.0 L 189.0,-90.0 L 188.0,-90.0 L 188.0,-88.0 L 207.0,-88.0 L 207.0,-92.0 L 201.0,-92.0 L 201.0,-87.0 L 208.0,-87.0 L 208.0,-99.0 L 201.0,-99.0 L 201.0,-94.0 L 203.0,-94.0 L 203.0,-106.0 L 159.0,-106.0 L 159.0,-85.0 L 187.0,-85.0 L 187.0,-112.0 L 165.0,-112.0 L 165.0,-106.0 L 217.0,-106.0 L 217.0,-115.0 L 204.0,-115.0 L 204.0,-96.0 L 221.0,-96.0 L 221.0,-109.0 L 209.0,-109.0 L 209.0,-80.0 L 211.0,-80.0 L 211.0,-85.0 L 196.0,-85.0 L 196.0,-62.0 L 201.0,-62.0 L 201.0,-87.0 L 191.0,-87.0 L 191.0,-71.0 L 192.0,-71.0 L 192.0,-87.0 L 184.0,-87.0 L 184.0,-10.0 L 210.0,-10.0 L 210.0,-24.0 L 135.0,-24.0 L 135.0,69.0 L 141.0,69.0 L 141.0,32.0 L 110.0,32.0 L 110.0,70.0 L 124.0,70.0 L 124.0,55.0 L 46.0,55.0 L 46.0,70.0 L 112.0,70.0 L 112.0,51.0 L 100.0,51.0 L 100.0,82.0 L 139.0,82.0 L 139.0,55.0 L 104.0,55.0 L 104.0,65.0 L 165.0,65.0 L 165.0,19.0 L 92.0,19.0 L 92.0,30.0 L 111.0,30.0 L 111.0,29.0 L 91.0,29.0 L 91.0,88.0 L 101.0,88.0 L 101.0,75.0 L 89.0,75.0 L 89.0,90.0 L 114.0,90.0 L 114.0,83.0 L 40.0,83.0 L 40.0,136.0 L 105.0,136.0 L 105.0,108.0 L 94.0,108.0 L 94.0,119.0 L 102.0,119.0 L 102.0,97.0 L 95.0,97.0 L 95.0,115.0 L 159.0,115.0 L 159.0,107.0 L 144.0,107.0 L 144.0,239.0 L 189.0,239.0 L 189.0,220.0 L 164.0,220.0 L 164.0,230.0 L 261.0,230.0 L 261.0,205.0 L 238.0,205.0 L 238.0,230.0 L 262.0,230.0 L 262.0,207.0 L 167.0,207.0 L 167.0,223.0 L 189.0,223.0 L 189.0,194.0 L 140.0,194.0 L 140.0,208.0 L 141.0,208.0 L 141.0,194.0 L 140.0,194.0 L 140.0,204.0 L 141.0,204.0 L 141.0,193.0 L 139.0,193.0 L 139.0,201.0 L 148.0,201.0 L 148.0,197.0 L 146.0,197.0 L 146.0,202.0 L 147.0,202.0 L 147.0,198.0 L 146.0,198.0 L 146.0,202.0" fill="none" stroke="#14B6D4" stroke-width="0.354" /><circle cx="50.0" cy="20.0" fill="#F26101" r="0" /><circle cx="146.0" cy="202.0" fill="#F26101" r="0" /></svg>